<svg width="29" height="22" viewBox="0 0 29 22" fill="none" xmlns="http://www.w3.org/2000/svg"><path fill-rule="evenodd" clip-rule="evenodd" d="M3.96.694h21.086c1.882 0 3.413 1.49 3.407 3.317v13.983c0 1.827-1.53 3.312-3.413 3.312H3.96c-1.883 0-3.413-1.485-3.413-3.312V4.006C.547 2.179 2.077.694 3.96.694ZM25.05 19.79c1.022 0 1.853-.807 1.853-1.799h-.006V4.008c0-.992-.831-1.799-1.853-1.799H3.964c-1.023 0-1.854.807-1.854 1.8V17.99c0 .992.831 1.8 1.853 1.8H25.05Z" fill="#EF2500"/><path d="m18.146 10.827 6.825-5.94a.745.745 0 0 0 .057-1.071.8.8 0 0 0-1.102-.056l-9.412 8.199-1.836-1.592c-.006-.006-.012-.011-.012-.017-.04-.039-.08-.072-.127-.106l-7.471-6.49a.795.795 0 0 0-1.103.062.74.74 0 0 0 .064 1.07l6.905 5.991-6.877 6.249a.744.744 0 0 0-.034 1.07.81.81 0 0 0 .571.241c.191 0 .381-.067.532-.201l6.98-6.339L14 13.54a.793.793 0 0 0 1.04-.005l1.945-1.693 6.94 6.4c.15.14.347.208.538.208a.79.79 0 0 0 .565-.236.744.744 0 0 0-.028-1.07l-6.854-6.316Z" fill="#EF2500"/></svg>