<svg width="437" height="406" viewBox="0 0 437 406" fill="none" xmlns="http://www.w3.org/2000/svg">
    <g clip-path="url(#clip0_102_41)">
        <mask id="mask0_102_41" style="mask-type:alpha" maskUnits="userSpaceOnUse" x="177" y="8" width="252" height="387">
            <path d="M284.313 347.788C281.808 348.313 279.625 348.54 277.119 349.065C274.948 348.98 273.802 347.972 275.032 346.805C279.088 346.34 283.145 345.876 287.499 345.734C286.319 344.132 285.15 342.219 283.97 340.617C281.798 340.533 279.627 340.449 276.836 340.34C277.838 338.512 278.209 336.971 279.175 336.075C291.407 325.036 303.937 314.32 315.871 302.958C367.163 253.916 370.074 178.721 345.683 118.647C323.271 63.6295 257.21 36.7902 202.552 52.4046C198.15 53.7895 193.747 55.1744 188.486 54.6589C194.512 51.4699 200.86 47.9822 210.382 42.7507C201.636 43.9669 196.637 44.7063 191.316 45.7443C171.064 44.245 176.745 31.9113 184.141 22.4375C216.802 -2.74473 253.866 10.8316 290.332 23.7623C321.586 34.9345 346.896 55.2116 371.799 77.9623C367.387 71.5671 362.987 64.8612 357.954 58.4419C352.623 51.6998 346.66 45.2444 341.007 38.8009C373.589 39.7555 388.196 63.6622 400.93 87.8074C428.711 140.544 436.21 195.605 421.505 254.471C411.591 293.918 394.114 328.092 365.401 355.606C349.589 370.863 329.602 381.6 311.392 394.585C307.879 395.329 305.301 394.705 307.242 389.445C320.513 375.646 333.772 362.157 345.754 349.553C320.518 359.464 294.03 369.638 267.529 380.122C263.716 379.974 262.236 377.862 264.954 374.421C273.856 369.165 283.08 363.611 291.981 358.355C291.695 357.722 291.719 357.1 291.433 356.467C285.48 357.792 279.836 359.128 273.87 360.764C272.134 360.696 272.015 359.632 273.012 358.863C276.854 355.901 280.685 353.249 284.527 350.286C284.874 349.366 284.588 348.732 284.313 347.788ZM243.329 18.2019C242.958 19.7435 242.6 20.9744 242.23 22.5159C256.068 26.1654 270.204 30.1377 284.042 33.7872C284.412 32.2456 284.783 30.704 285.153 29.1625C271.315 25.513 257.477 21.8635 243.329 18.2019Z" fill="black"/>
        </mask>
        <g mask="url(#mask0_102_41)">
            <path d="M284.313 347.788C281.808 348.313 279.625 348.54 277.119 349.065C274.948 348.98 273.802 347.972 275.032 346.805C279.088 346.34 283.145 345.876 287.499 345.734C286.319 344.132 285.15 342.219 283.97 340.617C281.798 340.533 279.627 340.449 276.836 340.34C277.838 338.512 278.209 336.971 279.175 336.075C291.407 325.036 303.937 314.32 315.871 302.958C367.163 253.916 370.074 178.721 345.683 118.647C323.271 63.6295 257.21 36.7902 202.552 52.4046C198.15 53.7895 193.747 55.1744 188.486 54.6589C194.512 51.4699 200.86 47.9822 210.382 42.7507C201.636 43.9669 196.637 44.7063 191.316 45.7443C171.064 44.245 176.745 31.9113 184.141 22.4375C216.802 -2.74473 253.866 10.8316 290.332 23.7623C321.586 34.9345 346.896 55.2116 371.799 77.9623C367.387 71.5671 362.987 64.8612 357.954 58.4419C352.623 51.6998 346.66 45.2444 341.007 38.8009C373.589 39.7555 388.196 63.6622 400.93 87.8074C428.711 140.544 436.21 195.605 421.505 254.471C411.591 293.918 394.114 328.092 365.401 355.606C349.589 370.863 329.602 381.6 311.392 394.585C307.879 395.329 305.301 394.705 307.242 389.445C320.513 375.646 333.772 362.157 345.754 349.553C320.518 359.464 294.03 369.638 267.529 380.122C263.716 379.974 262.236 377.862 264.954 374.421C273.856 369.165 283.08 363.611 291.981 358.355C291.695 357.722 291.719 357.1 291.433 356.467C285.48 357.792 279.836 359.128 273.87 360.764C272.134 360.696 272.015 359.632 273.012 358.863C276.854 355.901 280.685 353.249 284.527 350.286C284.874 349.366 284.588 348.732 284.313 347.788ZM243.329 18.2019C242.958 19.7435 242.6 20.9744 242.23 22.5159C256.068 26.1654 270.204 30.1377 284.042 33.7872C284.412 32.2456 284.783 30.704 285.153 29.1625C271.315 25.513 257.477 21.8635 243.329 18.2019Z" fill="#0D0D0D"/>
        </g>
        <path d="M156.632 42.8392C151.859 45.7656 146.788 48.3693 142.313 51.6186C135.272 56.9465 123.651 60.2293 130.268 73.8675C131.413 76.4015 128.715 81.8981 126.423 84.9209C113.999 100.931 100.37 115.961 89.1621 132.641C80.2579 145.988 74.7417 160.088 79.9376 178.339C83.4889 190.925 78.2468 205.969 79.9129 219.104C81.6512 230.374 87.7802 240.57 92.3342 251.328C96.8762 262.396 102.039 273.488 107.165 285.512C95.7627 275.111 83.7522 264.376 68.4501 250.4C85.6513 295.568 101.478 312.054 147.168 319.43C164.144 322.268 177.29 327.758 186.34 342.735C200.065 365.363 186.481 387.241 160.459 393.387C123.473 401.909 102.256 380.235 80.4421 357.915C62.2185 339.158 44.019 319.78 29.0055 298.347C18.118 282.675 12.9703 263.182 8.12064 244.011C9.90958 245.947 11.6865 248.195 15.8607 252.714C13.9901 244.861 14.5408 238.659 11.8574 235.754C4.67761 228.629 7.12553 221.566 7.14009 213.165C8.03266 182.081 12.5993 152.384 25.1947 123.932C27.9047 118.125 30.9128 112.641 34.5894 105.937C54.1981 121.014 35.0458 134.273 37.2602 149.296C39.2175 146.883 40.8165 145.7 41.5091 143.86C42.5358 141.41 43.5626 138.961 43.969 136.487C46.2992 124.441 55.3186 124.169 64.9944 122.989C68.4305 122.5 72.071 116.729 74.0885 112.762C86.1451 90.2023 100.027 68.6472 122.019 54.2533C131.899 47.7909 143.556 43.576 154.319 38.3927C158.811 38.0131 158.19 40.6045 156.632 42.8392Z" fill="url(#paint0_linear_102_41)"/>
    </g>
    <defs>
        <linearGradient id="paint0_linear_102_41" x1="109.123" y1="36.6368" x2="95.2628" y2="393.414" gradientUnits="userSpaceOnUse">
            <stop/>
            <stop offset="1" stop-color="#EF2500"/>
        </linearGradient>
        <clipPath id="clip0_102_41">
            <rect width="421.236" height="389.938" fill="white" transform="matrix(0.999246 0.0388201 -0.0386794 0.999252 15.0825 0)"/>
        </clipPath>
    </defs>
</svg>
