<svg width="121" height="23" viewBox="0 0 121 23" fill="none" xmlns="http://www.w3.org/2000/svg"><g clip-path="url(#svg-logo-a)"><path d="M16.766 19.88c-.148.037-.277.055-.424.092-.037-.037-.092-.073-.129-.128.24-.037.479-.074.737-.092-.074-.092-.148-.202-.221-.293h-.424c.055-.11.074-.202.13-.257.7-.679 1.418-1.34 2.1-2.036 2.928-3.008 2.928-7.447 1.344-10.932-1.455-3.19-5.435-4.622-8.64-3.576-.258.092-.516.183-.83.165.35-.202.72-.422 1.272-.752-.516.092-.81.147-1.124.22-.147-.403-.276-.807-.479-1.357 1.88-1.56 4.109-.844 6.3-.165 1.88.587 3.427 1.724 4.957 3.008-.277-.367-.553-.752-.866-1.12-.332-.384-.7-.751-1.05-1.118 1.934-.018 2.855 1.357 3.666 2.751 1.768 3.045 2.34 6.273 1.603 9.776-.498 2.348-1.456 4.402-3.095 6.09-.903.935-2.064 1.614-3.114 2.42-.092-.091-.166-.201-.258-.293.755-.844 1.51-1.669 2.192-2.44-1.473.643-3.02 1.303-4.569 1.982l-.165-.33c.516-.33 1.05-.68 1.566-1.01-.019-.036-.019-.073-.037-.11-.35.092-.682.184-1.032.294l-.055-.11c.22-.183.442-.348.663-.532.018-.055 0-.092-.018-.147ZM13.579.55l-.056.256c.83.184 1.677.386 2.506.569l.055-.275c-.829-.183-1.658-.367-2.505-.55Z" fill="#fff"/><path d="M8.494 2.202c-.276.183-.57.349-.829.55-.405.33-1.087.55-.663 1.34.074.146-.074.476-.203.66-.7.972-1.473 1.889-2.1 2.897-.497.807-.792 1.651-.442 2.715.24.734-.037 1.632.092 2.403.13.66.516 1.247.81 1.87.296.642.627 1.284.959 1.981-.7-.587-1.437-1.192-2.377-1.98 1.124 2.622 2.1 3.558 4.827 3.888 1.013.128 1.805.422 2.377 1.284.865 1.302.11 2.623-1.419 3.044-2.174.587-3.482-.642-4.827-1.907-1.124-1.064-2.247-2.164-3.187-3.393C.83 16.655.48 15.518.149 14.399c.11.11.22.239.479.495-.13-.458-.11-.825-.277-.99-.442-.404-.313-.825-.331-1.32C0 10.748.204 8.987.886 7.282c.147-.349.313-.679.515-1.083 1.198.844.093 1.67.258 2.55.11-.147.203-.22.24-.33.055-.147.11-.294.129-.44.11-.716.645-.752 1.216-.844.202-.037.405-.385.516-.624.663-1.357 1.437-2.66 2.708-3.558.57-.403 1.253-.679 1.879-1.009.037.074.092.165.147.257Z" fill="url(#svg-logo-b)"/></g><path d="M33.873 21a.538.538 0 0 1-.397-.159.6.6 0 0 1-.159-.396c0-.089.01-.168.027-.238L39.638 3.2c.053-.194.159-.361.318-.502.158-.141.379-.212.66-.212h3.386c.282 0 .502.07.661.212.159.141.265.308.317.502l6.295 17.006c.017.07.026.15.026.238a.6.6 0 0 1-.159.396.538.538 0 0 1-.396.159h-2.75c-.265 0-.46-.062-.583-.185a.934.934 0 0 1-.238-.344l-1.137-2.962H38.58l-1.137 2.962a.933.933 0 0 1-.238.344c-.123.123-.317.185-.582.185h-2.75Zm5.686-6.903h5.474L42.31 6.481l-2.75 7.616ZM53.922 21a.612.612 0 0 1-.45-.185.645.645 0 0 1-.185-.476V7.909c0-.194.062-.353.185-.476a.612.612 0 0 1 .45-.185h2.592c.194 0 .352.061.476.185a.644.644 0 0 1 .185.476V8.94c.458-.564 1.049-1.031 1.772-1.401.723-.37 1.604-.556 2.645-.556 1.04 0 1.948.238 2.724.714.793.459 1.41 1.138 1.85 2.037.46.881.688 1.957.688 3.226v7.379c0 .194-.07.352-.211.476a.612.612 0 0 1-.45.185H63.39a.644.644 0 0 1-.476-.185.645.645 0 0 1-.185-.476v-7.22c0-.935-.23-1.657-.688-2.169-.44-.529-1.093-.793-1.957-.793-.829 0-1.49.264-1.983.793-.494.512-.74 1.234-.74 2.169v7.22a.644.644 0 0 1-.186.476.612.612 0 0 1-.45.185h-2.803ZM70.658 21a.612.612 0 0 1-.45-.185.645.645 0 0 1-.185-.476V7.909c0-.194.062-.353.185-.476a.612.612 0 0 1 .45-.185h2.644c.194 0 .353.061.476.185a.644.644 0 0 1 .186.476v12.43a.645.645 0 0 1-.186.476.644.644 0 0 1-.476.185h-2.644Zm-.08-15.868a.612.612 0 0 1-.45-.185.644.644 0 0 1-.184-.476V2.355c0-.194.061-.353.185-.476a.576.576 0 0 1 .45-.212h2.776c.194 0 .353.071.476.212a.604.604 0 0 1 .212.476v2.116c0 .194-.07.352-.212.476a.644.644 0 0 1-.476.185h-2.777ZM83.493 21.264c-1.287 0-2.424-.238-3.412-.714a5.544 5.544 0 0 1-2.3-2.063c-.565-.916-.873-2.01-.926-3.279a17.416 17.416 0 0 1-.027-1.058c0-.44.01-.802.027-1.084.053-1.287.352-2.38.899-3.28a5.453 5.453 0 0 1 2.327-2.089c.988-.476 2.125-.714 3.412-.714 1.181 0 2.186.168 3.015.503.829.317 1.507.723 2.036 1.216.53.494.917 1.014 1.164 1.56.264.53.405.997.423 1.402a.571.571 0 0 1-.185.476.612.612 0 0 1-.45.185h-2.83a.64.64 0 0 1-.423-.132 2.207 2.207 0 0 1-.264-.423c-.247-.617-.564-1.058-.952-1.322-.388-.265-.873-.397-1.455-.397-.793 0-1.42.256-1.877.767-.459.511-.706 1.305-.741 2.38a33.313 33.313 0 0 0 0 1.878c.053 1.093.3 1.886.74 2.38.459.494 1.085.74 1.878.74.617 0 1.111-.132 1.481-.396.37-.265.679-.705.926-1.322a.976.976 0 0 1 .264-.397.572.572 0 0 1 .424-.159h2.83c.176 0 .325.07.449.212a.504.504 0 0 1 .185.45c-.018.3-.106.652-.264 1.057-.142.406-.38.82-.715 1.243-.317.423-.731.82-1.243 1.19-.51.353-1.137.644-1.877.873-.723.212-1.57.317-2.54.317ZM98.834 21.264c-1.287 0-2.424-.238-3.412-.714a5.544 5.544 0 0 1-2.3-2.063c-.565-.916-.873-2.01-.926-3.279a17.499 17.499 0 0 1-.027-1.058c0-.44.01-.802.027-1.084.053-1.287.353-2.38.9-3.28a5.453 5.453 0 0 1 2.326-2.089c.988-.476 2.125-.714 3.412-.714 1.181 0 2.186.168 3.015.503.829.317 1.507.723 2.036 1.216.529.494.917 1.014 1.164 1.56.264.53.405.997.423 1.402a.57.57 0 0 1-.185.476.611.611 0 0 1-.45.185h-2.829a.641.641 0 0 1-.424-.132 2.207 2.207 0 0 1-.264-.423c-.247-.617-.564-1.058-.952-1.322-.388-.265-.873-.397-1.455-.397-.793 0-1.419.256-1.877.767-.459.511-.706 1.305-.74 2.38a33.313 33.313 0 0 0 0 1.878c.052 1.093.299 1.886.74 2.38.458.494 1.084.74 1.877.74.617 0 1.111-.132 1.481-.396.371-.265.679-.705.926-1.322a.989.989 0 0 1 .264-.397.573.573 0 0 1 .424-.159h2.829c.177 0 .327.07.45.212a.503.503 0 0 1 .185.45c-.018.3-.106.652-.264 1.057-.141.406-.379.82-.714 1.243-.318.423-.732.82-1.243 1.19-.512.353-1.138.644-1.878.873-.723.212-1.57.317-2.539.317ZM112.112 21.264c-.934 0-1.772-.176-2.512-.529-.741-.37-1.331-.863-1.772-1.48a3.465 3.465 0 0 1-.661-2.063c0-1.252.502-2.24 1.507-2.962 1.023-.723 2.363-1.217 4.02-1.481l3.465-.503v-.476c0-.688-.159-1.216-.476-1.587-.318-.37-.873-.555-1.667-.555-.581 0-1.049.115-1.401.344-.353.229-.626.529-.82.899a.674.674 0 0 1-.608.344h-2.513c-.194 0-.344-.053-.449-.159a.537.537 0 0 1-.133-.423c0-.3.115-.652.344-1.058.229-.405.582-.802 1.058-1.19.476-.406 1.084-.74 1.825-1.005.74-.265 1.648-.397 2.724-.397 1.111 0 2.063.132 2.856.397.794.264 1.428.635 1.904 1.11a4.478 4.478 0 0 1 1.058 1.667c.229.617.344 1.287.344 2.01v8.172a.646.646 0 0 1-.185.476.645.645 0 0 1-.476.185h-2.592a.614.614 0 0 1-.45-.185.646.646 0 0 1-.185-.476v-.979a4.255 4.255 0 0 1-.925.952 4.946 4.946 0 0 1-1.402.688c-.529.176-1.155.264-1.878.264Zm1.058-2.75c.582 0 1.102-.123 1.56-.37.459-.247.82-.626 1.085-1.137.264-.512.397-1.155.397-1.931v-.45l-2.46.397c-.952.159-1.649.397-2.089.714-.441.318-.661.705-.661 1.164 0 .335.096.626.29.872.212.247.485.433.82.556.335.123.688.185 1.058.185Z" fill="#fff"/><defs><linearGradient id="svg-logo-b" x1="5.663" y1="1.945" x2="5.663" y2="23.005" gradientUnits="userSpaceOnUse"><stop/><stop offset="1" stop-color="#EF2500"/></linearGradient><clipPath id="svg-logo-a"><path fill="#fff" d="M0 0h25v23H0z"/></clipPath></defs></svg>