<svg width="437" height="406" viewBox="0 0 437 406" fill="none" xmlns="http://www.w3.org/2000/svg">
    <g clip-path="url('#clip0_101_61')">
        <path d="M284.823 346.978C282.313 347.502 280.126 347.727 277.616 348.251C275.44 348.166 274.292 347.16 275.524 345.997C279.588 345.533 283.652 345.07 288.014 344.929C286.832 343.331 285.661 341.423 284.478 339.825C282.303 339.74 280.127 339.656 277.331 339.547C278.335 337.724 278.706 336.186 279.674 335.292C291.927 324.281 304.479 313.592 316.434 302.259C367.814 253.339 370.723 178.325 346.282 118.394C323.825 63.5061 257.641 36.7252 202.886 52.297C198.475 53.6781 194.065 55.0593 188.794 54.5445C194.831 51.3637 201.19 47.885 210.729 42.667C201.968 43.8794 196.96 44.6166 191.629 45.6516C171.34 44.154 177.03 31.8505 184.439 22.4002C217.157 -2.7185 254.288 10.8286 290.822 23.7316C322.134 34.88 347.491 55.1106 372.442 77.809C368.021 71.4288 363.612 64.7385 358.57 58.3342C353.229 51.6078 347.255 45.1673 341.591 38.7389C374.231 39.6942 388.867 63.5448 401.626 87.6331C429.463 140.246 436.98 195.175 422.254 253.898C412.326 293.249 394.82 327.34 366.058 354.785C350.219 370.003 330.197 380.713 311.955 393.665C308.435 394.406 305.853 393.784 307.797 388.537C321.091 374.772 334.372 361.317 346.375 348.744C321.094 358.629 294.559 368.776 268.011 379.233C264.191 379.085 262.709 376.978 265.431 373.545C274.348 368.303 283.588 362.763 292.506 357.521C292.219 356.889 292.243 356.269 291.956 355.637C285.992 356.957 280.338 358.29 274.362 359.921C272.623 359.854 272.503 358.792 273.502 358.025C277.351 355.07 281.188 352.425 285.037 349.47C285.384 348.552 285.098 347.92 284.823 346.978ZM243.733 18.1803C243.362 19.7181 243.004 20.946 242.633 22.4838C256.496 26.1258 270.658 30.0898 284.522 33.7318C284.892 32.194 285.263 30.6562 285.634 29.1184C271.771 25.4764 257.907 21.8344 243.733 18.1803Z" fill="#EF2500"></path>
        <path d="M156.885 42.7522C152.104 45.6712 147.024 48.2682 142.541 51.5092C135.488 56.8236 123.846 60.0974 130.477 73.7035C131.623 76.2315 128.921 81.7146 126.626 84.73C114.18 100.701 100.528 115.693 89.3014 132.332C80.3823 145.646 74.8574 159.712 80.0644 177.919C83.6233 190.475 78.3731 205.483 80.0435 218.586C81.786 229.83 87.927 240.002 92.4903 250.734C97.0415 261.776 102.214 272.842 107.351 284.838C95.9272 274.46 83.894 263.749 68.5628 249.806C85.7994 294.867 101.656 311.315 147.43 318.678C164.437 321.51 177.607 326.988 186.675 341.93C200.427 364.505 186.82 386.329 160.752 392.458C123.699 400.955 102.442 379.332 80.5866 357.064C62.3282 338.35 44.0939 319.016 29.0512 297.634C18.1426 281.999 12.9836 262.552 8.12345 243.426C9.91581 245.358 11.6961 247.601 15.8783 252.109C14.0036 244.275 14.5547 238.088 11.8662 235.19C4.67274 228.081 7.12444 221.036 7.13825 212.655C8.02954 181.645 12.6017 152.02 25.2172 123.638C27.9316 117.845 30.9447 112.374 34.6273 105.687C54.2729 120.729 35.0872 133.955 37.307 148.942C39.2676 146.535 40.8694 145.355 41.563 143.519C42.5914 141.076 43.6198 138.632 44.0268 136.164C46.36 124.148 55.3957 123.877 65.089 122.701C68.5312 122.214 72.1778 116.457 74.1986 112.499C86.275 89.9949 100.18 68.4929 122.21 54.1356C132.108 47.6897 143.786 43.486 154.568 38.3162C159.067 37.9379 158.446 40.5231 156.885 42.7522Z" fill="url('#paint0_linear_101_61')"></path>
    </g>
    <defs>
        <linearGradient id="paint0_linear_101_61" x1="109.29" y1="36.5603" x2="95.4877" y2="392.481" gradientUnits="userSpaceOnUse">
            <stop stop-color="#EF2500"></stop>
            <stop offset="1"></stop>
        </linearGradient>
        <clipPath id="clip0_101_61">
            <rect width="422" height="389" fill="white" transform="translate(15.0737) rotate(2.22075)"></rect>
        </clipPath>
    </defs>
</svg>
