<svg width="26" height="31" viewBox="0 0 26 31" fill="none" xmlns="http://www.w3.org/2000/svg"><path fill-rule="evenodd" clip-rule="evenodd" d="M.563 12.426C.563 5.576 6.205 0 13.137 0c6.931 0 12.574 5.576 12.587 12.426a12.64 12.64 0 0 1-.309 2.75c-.19.844-.473 1.663-.842 2.45-1.355 3.151-4.34 7.993-10.87 13.179a.9.9 0 0 1-1.118 0c-6.537-5.186-9.517-10.028-10.871-13.18a12.14 12.14 0 0 1-.928-2.866 12.09 12.09 0 0 1-.223-2.333Zm23.17 2.049a10.462 10.462 0 0 0 .2-2.054c0-5.881-4.847-10.671-10.798-10.671-5.952 0-10.799 4.79-10.799 10.671 0 .683.066 1.359.198 2.028 0 .01.002.02.003.027l.003.018.005.03c.008.046.023.132.054.25v.013a10.917 10.917 0 0 0 .737 2.132c.002.004.003.01.006.013 1.23 2.879 3.927 7.272 9.793 12.062 5.866-4.79 8.562-9.183 9.792-12.062a.033.033 0 0 0 .006-.013 10.236 10.236 0 0 0 .737-2.132v-.013l.06-.28c0-.006 0-.013.003-.02Z" fill="#EF2500"></path><path fill-rule="evenodd" clip-rule="evenodd" d="M5.157 12.562c0-4.348 3.584-7.89 7.983-7.89 4.4 0 7.984 3.542 7.984 7.89 0 4.347-3.584 7.89-7.984 7.89s-7.983-3.543-7.983-7.89Zm1.773.003c0 3.38 2.782 6.135 6.208 6.135s6.208-2.756 6.208-6.135c0-3.38-2.788-6.135-6.208-6.135-3.42 0-6.208 2.755-6.208 6.135Z" fill="#EF2500"></path></svg>