<?xml version="1.0" standalone="no"?>
<!DOCTYPE svg PUBLIC "-//W3C//DTD SVG 20010904//EN"
 "http://www.w3.org/TR/2001/REC-SVG-20010904/DTD/svg10.dtd">
<svg version="1.0" xmlns="http://www.w3.org/2000/svg" width="512.000000pt" height="512.000000pt" viewBox="0 0 512.000000 512.000000" preserveAspectRatio="xMidYMid meet">
<metadata>
Created by potrace 1.14, written by Peter Selinger 2001-2017
</metadata>
<g transform="translate(0.000000,512.000000) scale(0.100000,-0.100000)" fill="#000000" stroke="none">
<path d="M2568 4505 c-1 -1 -24 -6 -49 -9 -129 -17 -280 -98 -328 -176 -30
-48 -44 -101 -34 -127 9 -24 73 -55 115 -56 43 -1 121 9 167 20 37 9 18 -11
-37 -40 -67 -35 -126 -68 -132 -74 -8 -9 77 6 134 22 31 9 67 18 81 21 14 2
37 7 53 10 61 13 299 12 377 -1 163 -28 263 -62 402 -134 216 -114 384 -282
487 -488 29 -57 80 -197 116 -318 11 -38 48 -225 48 -245 0 -8 3 -42 7 -75 14
-107 9 -345 -10 -450 -63 -350 -209 -623 -454 -850 -77 -70 -91 -83 -178 -161
-109 -96 -183 -169 -183 -181 0 -5 13 -9 30 -8 20 1 37 -6 51 -22 13 -12 21
-25 18 -27 -2 -2 -24 -5 -49 -7 -54 -3 -70 -8 -70 -21 0 -6 17 -8 44 -4 66 10
65 -8 -3 -56 -33 -24 -60 -49 -60 -57 -1 -7 5 -11 12 -8 38 14 168 40 174 34
8 -9 20 -1 -138 -95 -75 -45 -139 -88 -142 -96 -3 -8 1 -20 9 -27 19 -16 -13
-27 593 211 113 44 206 79 207 77 2 -1 -82 -90 -187 -197 -153 -159 -188 -200
-186 -220 1 -18 8 -25 22 -24 23 0 356 220 460 303 287 229 504 569 628 981
14 47 28 96 31 110 3 14 14 66 25 116 11 51 23 118 27 150 3 33 8 68 11 79 9
41 11 373 2 445 -14 127 -21 175 -24 180 -2 3 -6 25 -10 50 -4 25 -8 47 -10
51 -2 3 -7 19 -9 35 -7 39 -43 161 -51 174 -3 5 -8 18 -10 27 -11 61 -132 329
-203 452 -145 253 -291 372 -486 396 -67 9 -67 5 -6 -62 70 -76 128 -150 185
-233 56 -81 57 -84 20 -50 -264 239 -492 391 -720 482 -152 61 -372 129 -490
153 -71 15 -267 29 -277 20z m471 -156 c101 -27 186 -50 188 -53 3 -2 2 -13
-1 -24 -6 -19 -11 -18 -134 15 -70 19 -159 43 -199 53 -88 22 -92 25 -86 50 4
16 11 19 27 14 11 -4 104 -29 205 -55z"></path>
<path d="M1880 4186 c-116 -48 -267 -128 -324 -170 -156 -118 -284 -275 -406
-501 -59 -109 -96 -155 -125 -155 -13 0 -48 -5 -77 -11 -71 -16 -110 -56 -133
-135 -9 -34 -27 -74 -41 -90 l-23 -29 -1 28 c0 15 14 69 31 120 36 106 40 171
13 213 -19 29 -65 77 -69 72 -16 -20 -96 -183 -125 -257 -66 -165 -119 -400
-135 -591 -12 -152 -14 -177 -15 -272 -2 -83 1 -103 19 -130 43 -70 51 -88 57
-140 4 -29 9 -57 11 -63 3 -5 -11 7 -32 28 -20 20 -38 37 -40 37 -4 0 35 -141
65 -235 81 -250 243 -473 645 -882 230 -234 324 -306 461 -353 105 -37 224
-42 338 -16 261 61 386 262 289 468 -36 76 -94 144 -161 187 -53 33 -174 76
-242 85 -203 27 -411 113 -518 216 -66 64 -144 175 -185 263 -49 105 -74 163
-82 187 -6 22 -3 21 36 -15 23 -22 48 -44 54 -50 19 -17 187 -169 204 -185 45
-42 84 -74 80 -65 -3 6 -10 21 -17 35 -86 185 -235 541 -244 587 -14 62 -14
73 -3 259 6 99 4 135 -10 200 -32 142 -10 262 73 399 31 51 184 260 202 275
24 21 215 270 226 295 11 27 10 40 -2 83 -23 77 -6 104 114 185 53 35 111 72
129 83 33 19 47 39 37 55 -7 12 -11 12 -74 -15z"></path>
</g>
</svg>
